SplineFontDB: 3.0
FontName: post_rm
FullName: post_rm
FamilyName: post_rm
Weight: Medium
Copyright: Created by Andrey V. Panov with FontForge 1.0 (http://fontforge.sf.net)
UComments: "2006-6-8: Created." 
Version: 001.000
ItalicAngle: 0
UnderlinePosition: -100
UnderlineWidth: 50
Ascent: 800
Descent: 200
LayerCount: 2
Layer: 0 0 "+BBcEMAQ0BD0EOAQ5 +BD8EOwQwBD0A"  1
Layer: 1 0 "+BB8ENQRABDUENAQ9BDgEOQAA +BD8EOwQwBD0A"  0
NeedsXUIDChange: 1
XUID: [1021 305 2130962764 818742]
OS2Version: 0
OS2_WeightWidthSlopeOnly: 0
OS2_UseTypoMetrics: 0
CreationTime: 1151318793
ModificationTime: 1237944697
OS2TypoAscent: 0
OS2TypoAOffset: 1
OS2TypoDescent: 0
OS2TypoDOffset: 1
OS2TypoLinegap: 0
OS2WinAscent: 0
OS2WinAOffset: 1
OS2WinDescent: 0
OS2WinDOffset: 1
HheadAscent: 0
HheadAOffset: 1
HheadDescent: 0
HheadDOffset: 1
OS2Vendor: 'PfEd'
DEI: 91125
Encoding: UnicodeBmp
UnicodeInterp: none
NameList: Adobe Glyph List
DisplaySize: -48
AntiAlias: 1
FitToEm: 1
WinInfo: 992 16 14
BeginChars: 65536 35

StartChar: afii10025
Encoding: 1047 1047 0
Width: 611
Flags: HMW
HStem: -22 31<184 393> 344 23<216 290> 674 31<246.5 368.5>
VStem: 61 33<499 505> 443 98<496 571> 468 100<136.5 222.5>
LayerCount: 2
Fore
SplineSet
50 174 m 0
 50 188 57 192 64 192 c 0
 71 192 77 189 79 184 c 0
 84 172 73 9 295 9 c 0
 407 9 468 96 468 177 c 0xe4
 468 268 399 325 340 339 c 0
 321 344 300 344 280 344 c 2
 216 344 l 2
 207 344 196 345 196 356 c 0
 196 366 210 367 220 367 c 2
 270 367 l 2
 308 367 340 369 376 394 c 0
 418 423 443 471 443 521 c 0
 443 597 387 674 297 674 c 0
 196 674 110 621 94 505 c 0
 92 494 93 479 76 479 c 0
 63 479 61 490 61 499 c 2
 61 682 l 2
 61 693 62 704 73 704 c 0
 85 704 106 676 135 650 c 1
 151 663 201 705 300 705 c 0
 437 705 541 620 541 522 c 0xe8
 541 489 526 399 373 357 c 1
 505 330 568 249 568 175 c 0
 568 98 488 -22 298 -22 c 0xe4
 99 -22 50 100 50 174 c 0
EndSplineSet
EndChar

StartChar: afii10036
Encoding: 1058 1058 1
Width: 722
Flags: HW
HStem: 0 31<170 232 488 550> 652 31<55 665>
VStem: 35 25<458 458> 315 90<82 632.5> 659 26<458 458>
LayerCount: 2
Fore
SplineSet
35 458 m 1
 55 683 l 1
 665 683 l 1
 685 458 l 1
 659 458 l 1
 646 600 636 652 496 652 c 2
 463 652 l 2
 419 652 405 651 405 614 c 2
 405 82 l 2
 405 31 426 31 550 31 c 1
 550 0 l 1
 483 2 423 3 360 3 c 0
 297 3 237 2 170 0 c 1
 170 31 l 1
 294 31 315 31 315 82 c 2
 315 614 l 2
 315 651 301 652 257 652 c 2
 224 652 l 2
 84 652 73 600 60 458 c 1
 35 458 l 1
EndSplineSet
EndChar

StartChar: afii10051
Encoding: 1026 1026 2
Width: 861
Flags: HW
HStem: -22 23<577.5 660.5> 0 31<170 242 439 456> 42 111<529.5 559> 430 23<549 714> 652 31<63 665>
VStem: 35 25<458 458> 315 90<69 632> 487 111<65 115.5> 659 26<516 516> 720 84<215 331.5>
LayerCount: 2
Fore
SplineSet
35 458 m 1
 63 683 l 1
 665 683 l 1
 685 516 l 1
 659 516 l 1
 646 624 623 652 515 652 c 2
 461 652 l 2
 418 652 405 652 405 612 c 2
 405 345 l 1
 427 386 487 453 611 453 c 0
 817 453 804 328 804 274 c 2
 804 215 l 2
 804 198 804 181 802 163 c 0
 788 57 706 -22 615 -22 c 0
 540 -22 487 35 487 95 c 0
 487 136 516 153 543 153 c 0
 572 153 598 131 598 98 c 0
 598 67 576 42 542 42 c 0
 538 42 534 42 530 43 c 1
 550 19 576 1 612 1 c 0xbfc0
 630 1 664 7 692 50 c 0
 723 99 720 168 720 220 c 2
 720 295 l 2
 720 368 705 430 602 430 c 0
 502 430 430 372 410 305 c 0
 404 282 405 257 405 232 c 2
 405 69 l 2
 405 30 422 31 456 31 c 1
 456 0 l 1
 402 3 372 3 358 3 c 0
 283 3 188 0 170 0 c 1
 170 31 l 1
 309 31 315 35 315 90 c 2
 315 600 l 2x7fc0
 315 648 314 652 258 652 c 2
 226 652 l 2
 86 652 78 591 60 458 c 1
 35 458 l 1
EndSplineSet
EndChar

StartChar: afii10058
Encoding: 1033 1033 3
Width: 1083
Flags: HMW
HStem: -22 25<101.5 163.5> -0 31<448 813.5> 42 111<73 99> 351 35<745.5 870.5> 652 31<171 743>
VStem: 27 112<63 117.5> 278 26<609 620> 551 90<50.5 628.5> 923 103<144 240>
LayerCount: 2
Fore
SplineSet
27 94 m 0
 27 141 63 153 83 153 c 0
 113 153 139 131 139 97 c 0
 139 67 116 42 82 42 c 0
 78 42 74 42 70 43 c 1
 77 31 96 3 135 3 c 0xbd80
 192 3 271 77 278 592 c 2
 278 609 l 2
 278 647 265 652 171 652 c 1
 171 683 l 1
 743 683 l 1
 743 652 l 1
 657 652 641 650 641 607 c 2
 641 373 l 1
 691 380 744 386 800 386 c 0
 941 386 1026 289 1026 191 c 0
 1026 97 954 17 855 2 c 0
 839 -0 822 -0 805 -0 c 2
 448 -0 l 1
 448 31 l 1x7d80
 530 31 551 32 551 73 c 1
 551 601 l 2
 551 649 550 652 489 652 c 2
 394 652 l 2
 326 652 306 656 304 620 c 0
 301 577 306 233 240 70 c 0
 213 3 178 -22 136 -22 c 0
 67 -22 27 32 27 94 c 0
641 72 m 2
 641 31 651 31 707 31 c 2
 785 31 l 2
 900 31 923 145 923 190 c 0
 923 269 872 351 768 351 c 0
 723 351 670 345 641 341 c 1
 641 72 l 2
EndSplineSet
EndChar

StartChar: afii10060
Encoding: 1035 1035 4
Width: 764
Flags: HW
HStem: 0 31<157 196 391.5 426 505 537.5 729 729> 418 23<461 583> 652 31<63 610>
VStem: 35 25<458 458> 260 89<57 632.5> 582 70<79 324.5> 604 25<516 516>
LayerCount: 2
Fore
SplineSet
35 458 m 1
 63 683 l 1
 610 683 l 1
 629 516 l 1
 604 516 l 1xfa
 591 624 568 652 460 652 c 2
 406 652 l 2
 364 652 349 652 349 613 c 2
 349 382 l 2
 349 371 349 360 350 348 c 1
 376 398 427 441 505 441 c 0
 661 441 652 329 652 269 c 2
 652 82 l 2
 652 44 653 31 714 31 c 2
 729 31 l 1
 729 0 l 1
 692 2 655 3 618 3 c 0
 580 3 543 2 505 0 c 1
 505 31 l 1
 570 31 582 32 582 79 c 2
 582 299 l 2
 582 350 577 418 498 418 c 0
 424 418 361 362 351 286 c 0
 348 268 349 249 349 231 c 2
 349 81 l 2
 349 33 357 31 426 31 c 1
 426 0 l 1
 389 2 352 3 303 3 c 0
 254 3 205 2 157 0 c 1
 157 31 l 1
 235 31 260 31 260 73 c 2
 260 597 l 2xfc
 260 647 258 652 206 652 c 0
 86 652 76 594 60 458 c 1
 35 458 l 1
EndSplineSet
EndChar

StartChar: afii10145
Encoding: 1039 1039 5
Width: 778
Flags: HW
HStem: -0 34<33 744> 652 31<33 76.5 280.5 328 449 491 703 744>
VStem: 136 89<67 629> 376 25<-195 -171.5> 551 90<48 610>
LayerCount: 2
Fore
SplineSet
33 -0 m 1
 33 34 l 1
 112 34 136 34 136 74 c 2
 136 610 l 2
 136 648 120 652 33 652 c 1
 33 683 l 1
 84 681 135 680 187 680 c 0
 235 680 281 682 328 683 c 1
 328 652 l 1
 233 652 225 650 225 600 c 2
 225 67 l 2
 225 34 240 34 291 34 c 2
 500 34 l 2
 543 34 552 34 552 84 c 2
 552 610 l 2
 552 650 533 652 449 652 c 1
 449 683 l 1
 496 682 542 680 590 680 c 0
 641 680 693 681 744 683 c 1
 744 652 l 1
 662 652 641 651 641 610 c 2
 641 75 l 2
 641 38 655 34 744 34 c 1
 744 -0 l 1
 473 -0 l 2
 445 0 436 -1 421 -56 c 0
 408 -101 401 -148 401 -195 c 1
 376 -195 l 1
 376 -156 369 -99 357 -58 c 0
 340 -3 339 -0 299 0 c 2
 33 -0 l 1
EndSplineSet
EndChar

StartChar: afii10018
Encoding: 1041 1041 6
Width: 708
Flags: HW
HStem: -0 31<35 418.5> 351 35<339 481.5> 652 31<35 568>
VStem: 138 84<49.5 616> 548 103<142 239.5> 570 26<458 458>
LayerCount: 2
Fore
SplineSet
35 -0 m 1
 35 31 l 1
 113 31 138 31 138 73 c 2
 138 610 l 2
 138 648 121 652 35 652 c 1xf8
 35 683 l 1
 568 683 l 1
 596 458 l 1
 570 458 l 1xf4
 561 530 552 590 509 623 c 0
 469 652 412 652 371 652 c 2
 291 652 l 2
 234.75 652 222 651.5 222 616 c 2
 222 372 l 1
 293 383 366 386 403 386 c 0
 560 386 651 288 651 191 c 0
 651 93 567 15 462 2 c 0
 445 -0 427 -0 410 -0 c 2
 35 -0 l 1
222 71 m 2
 222 31.6667 231 31 291 31 c 2
 385 31 l 2
 407 31 463 28 510 83 c 0
 544 124 548 169 548 191 c 0xf8
 548 257 500 351 373 351 c 0
 305 351 225 341 222 341 c 1
 222 71 l 2
EndSplineSet
EndChar

StartChar: afii10020
Encoding: 1043 1043 7
Width: 625
Flags: HW
HStem: -0 31<33 72 339 353> 652 31<33 555>
VStem: 136 89<73 629> 557 26<458 458>
LayerCount: 2
Fore
SplineSet
33 -0 m 1
 33 31 l 1
 111 31 136 31 136 73 c 2
 136 610 l 2
 136 648 119 652 33 652 c 1
 33 683 l 1
 555 683 l 1
 583 458 l 1
 557 458 l 1
 538 603 519 652 365 652 c 2
 293 652 l 2
 230 652 225 652 225 601 c 2
 225 90 l 2
 225 62 221 38 269 33 c 0
 297 30 325 31 353 31 c 1
 353 -0 l 1
 265 3 212 3 176 3 c 0
 157 3 113 3 33 -0 c 1
EndSplineSet
EndChar

StartChar: afii10066
Encoding: 1073 1073 8
Width: 500
Flags: HMW
HStem: -11 26<197 313> 424 23<200.5 309.5>
VStem: 27 33<225 378> 27 84<218.5 247.5 194.5 285.5> 387 84<153.5 278>
LayerCount: 2
Fore
SplineSet
27 225 m 0
 27 346 31.1621 386.972 38 427 c 0
 72.8253 630.859 203 628 338 666 c 0
 416.938 688.22 413 693 429 693 c 0
 439 693 442 688 442 681 c 0
 442 667 426 628 382 612 c 0
 272 572 92 606 60 378 c 0
 57 361 55 344 55 326 c 1
 84 382 152 447 249 447 c 0xe8
 370 447 471 343 471 213 c 0
 471 94 378 -11 248 -11 c 0
 146 -11 42 67 29 187 c 0
 27 200 27 212 27 225 c 0
111 222 m 0xd8
 111 167 112 95 161 50 c 0
 185 27 216 15 249 15 c 0
 314 15 348 59 357 73 c 0
 386 117 387 171 387 214 c 0
 387 298 380 355 332 395 c 0
 308 413 279 424 249 424 c 0
 198 424 159 394 139 364 c 0
 112 322 111 273 111 222 c 0xd8
EndSplineSet
EndChar

StartChar: afii10047
Encoding: 1069 1069 9
Width: 722
Flags: HMW
HStem: -22 31<234 413> 278 51<366 487> 335 44<188 309.5> 674 31<249.5 408.5>
VStem: 55 33<481 484> 563 103<240 444>
LayerCount: 2
Fore
SplineSet
55 190 m 0
 55 205 61 211 67 211 c 0
 86 211 78 180 91 143 c 0
 120 62 208 9 301 9 c 0
 384 9 546 72 561 318 c 1
 512 296 464 278 410 278 c 0
 322 278 284 335 202 335 c 0
 174 335 158 325 149 325 c 0
 145 325 139 328 139 336 c 0
 139 362 215 379 257 379 c 0
 362 379 379 329 468 329 c 0
 506 329 536 339 563 350 c 1
 563 593 407 674 304 674 c 0
 195 674 108 593 88 484 c 0
 86 476 86 462 70 462 c 0
 59 462 55 471 55 481 c 2
 55 680 l 2
 55 694 57 704 66 704 c 0
 76.9275 704 88.9648 685.296 133 631 c 1
 173 670 235 705 317 705 c 0
 500 705 666 549 666 339 c 0
 666 141 510 -22 316 -22 c 0
 152 -22 55 98 55 190 c 0
EndSplineSet
EndChar

StartChar: afii10067
Encoding: 1074 1074 10
Width: 500
Flags: HW
HStem: -0 23<27 357> 226 22<175 281> 408 22<27 334.5>
VStem: 105 70<46 385> 365 79<302 346.5> 385 81<98.5 153>
LayerCount: 2
Back
SplineSet
27 430.455 m 1
 27 430.454 l 1
 223.818 430.454 l 1
 263.364 430.454 l 2
 276.415 430.454 289.44 430.454 302.455 429.332 c 0
 324.518 427.405 346.4 422.727 367 414.544 c 0
 381.363 408.798 395.182 401.361 407.446 391.795 c 0
 416.209 384.92 424.185 376.927 430.5 367.724 c 0
 434.995 361.174 438.569 353.999 440.799 346.364 c 0
 442.393 340.907 443.317 335.233 443.364 329.545 c 0
 443.477 325.597 443.178 321.598 442.37 317.727 c 0
 436.293 288.627 408.793 270.384 383.818 258.179 c 0
 379.038 255.843 374.185 253.636 369.273 251.611 c 0
 362.851 248.938 356.325 246.518 349.727 244.314 c 0
 341.496 241.563 333.171 239.272 324.727 237.273 c 1
 324.727 236.364 l 1
 334.556 234.091 344.253 231.527 353.818 228.343 c 0
 370.912 222.653 387.649 215.558 403.364 206.726 c 0
 415.546 199.88 427.199 191.978 437.361 182.273 c 0
 452.432 168.056 463.818 150.183 465.573 129.091 c 0
 466.185 121.504 465.592 113.835 464.193 106.364 c 0
 462.355 96.545 459.006 87.0486 454.416 78.1818 c 0
 448.277 66.3227 440.021 55.6054 430.431 46.3336 c 0
 417.721 34.0459 402.617 24.1668 386.545 16.8182 c 0
 368.737 8.75997 349.592 3.7527 330.182 1.50225 c 0
 316.545 -2.67029e-05 302.909 -2.67029e-05 289.273 -2.67029e-05 c 2
 244.727 -2.67029e-05 l 1
 27 -2.67029e-05 l 1
 27 22.7272 l 1
 42.3946 22.7272 58.1359 22.4713 73.3636 25 c 0
 82.8868 26.6918 92.2 29.9541 98.0591 38.1091 c 0
 104.422 46.965 104.57 58.6282 104.695 69.0909 c 0
 104.9 86.0563 104.727 103.033 104.727 120 c 2
 104.727 314.091 l 2
 104.727 329.997 104.9 345.909 104.691 361.818 c 0
 104.556 372.125 104.376 383.566 98.2945 392.381 c 0
 92.4545 400.81 83.0605 404.172 73.3632 405.826 c 0
 58.1327 408.423 42.3982 408.17 27 408.182 c 1
 27 430.455 l 1
174.727 247.727 m 1
 174.727 247.727 l 1
 231.091 247.727 l 2
 245.344 247.727 259.665 247.273 273.818 249.308 c 0
 291.091 251.733 308.237 257.061 323.363 265.906 c 0
 338.364 274.707 352.083 287.23 359.612 303.182 c 0
 361.663 307.527 363.21 312.109 364.168 316.818 c 0
 370.182 346.452 353.54 376.446 329.265 392.71 c 0
 318.235 400.099 305.556 404.831 292.455 406.818 c 0
 284.176 408.121 275.81 408.158 267.455 408.178 c 2
 243.364 408.182 l 1
 220.182 408.179 l 2
 214.432 408.169 208.643 408.261 202.909 407.727 c 0
 194.975 407.071 186.881 405.161 181.545 398.719 c 0
 177.68 393.949 176.291 387.727 175.545 381.816 c 0
 174.384 372.508 174.727 362.996 174.727 353.636 c 2
 174.727 247.727 l 1
174.727 225.909 m 1
 174.727 225.909 l 1
 174.727 87.7272 l 2
 174.727 75.805 174.183 63.6363 175.182 51.8181 c 0
 175.852 44.9491 177 37.6568 181.545 32.1641 c 0
 187.281 25.2041 196.211 23.5745 204.727 23.0172 c 0
 210.923 22.6122 217.159 22.7272 223.364 22.7272 c 2
 250.636 22.7272 l 2
 265.746 22.7272 281.091 21.975 296.091 24.39 c 0
 324.118 28.9109 349.727 44.2322 366.461 67.2727 c 0
 373.955 77.6045 379.407 89.405 382.367 101.818 c 0
 390.802 137.185 378.818 176.507 352.284 201.24 c 0
 345.939 207.138 338.812 212.181 331.091 216.116 c 0
 322.909 220.259 314.19 223.125 305.182 224.545 c 0
 297.213 225.856 289.141 225.882 281.091 225.905 c 2
 256.091 225.909 l 1
 174.727 225.909 l 1
EndSplineSet
Fore
SplineSet
27 -0 m 1
 27 23 l 1
 81 23 105 23 105 69 c 2
 105 362 l 2
 105 408 82 408 27 408 c 1
 27 430 l 1
 263 430 l 2
 406 430 444 364 444 329 c 0xf8
 444 275 361 246 323 237 c 1
 390 222 466 183 466 123 c 0xf4
 466 74 425 0 289 -0 c 2
 27 -0 l 1
175 88 m 2
 175 26 175 23 223 23 c 2
 251 23 l 2
 287 23 304 24 321 31 c 0
 355 46 385 78 385 125 c 0xf4
 385 160 364 226 281 226 c 2
 175 226 l 1
 175 88 l 2
175 248 m 1
 231 248 l 2
 268 248 293 248 323 266 c 0
 342 277 365 298 365 329 c 0
 365 359 344 408 267 408 c 2
 220 408 l 2
 175 408 175 401 175 354 c 2
 175 248 l 1
EndSplineSet
EndChar

StartChar: afii10022
Encoding: 1045 1045 11
Width: 680
Flags: HW
HStem: -0 31<33 610> 340 30<225 294> 652 31<33 597>
VStem: 136 89<52 637.5> 423 25<223 487> 599 25<458 458>
LayerCount: 2
Fore
SplineSet
33 -0 m 1
 33 31 l 1
 111 31 136 31 136 73 c 2
 136 610 l 2
 136 648 119 652 33 652 c 1
 33 683 l 1
 597 683 l 1
 624 458 l 1
 599 458 l 1
 589 540 577 622 490 643 c 0
 457 652 425 652 387 652 c 2
 296 652 l 2
 235.833 652 225 651.667 225 611 c 2
 225 370 l 1
 294 370 l 2
 383 370 423 370 423 487 c 1
 448 487 l 1
 448 223 l 1
 423 223 l 1
 423 340 383 340 294 340 c 2
 225 340 l 1
 225 73 l 2
 225 31 235.25 31 298 31 c 2
 391 31 l 2
 437 31 500.987 32.0188 547 63 c 0
 601.985 100.022 614 182 627 258 c 1
 652 258 l 1
 610 -0 l 1
 33 -0 l 1
EndSplineSet
EndChar

StartChar: afii10068
Encoding: 1075 1075 12
Width: 444
Flags: HW
HStem: -0 23<25 25 228.5 270> 408 22<25 407>
VStem: 103 70<69 362> 393 25<270 270>
LayerCount: 2
Fore
SplineSet
25 -0 m 1
 25 23 l 1
 80 23 103 23 103 69 c 2
 103 362 l 2
 103 408 81 408 25 408 c 1
 25 430 l 1
 407 430 l 1
 418 270 l 1
 393 270 l 1
 385 371 376 408 264 408 c 2
 225 408 l 2
 184 408 173 408 173 362 c 2
 173 71 l 2
 173 28 187 23 270 23 c 1
 270 -0 l 1
 226 2 183 3 139 3 c 0
 94 3 59 2 25 -0 c 1
EndSplineSet
EndChar

StartChar: afii10069
Encoding: 1076 1076 13
Width: 555
Flags: HW
HStem: -0 23<103.5 395> 408 22<121 529>
VStem: 1 25<-162 -162> 199 25<301.5 385.5> 381 70<63 367> 528 25<-162 -162>
LayerCount: 2
Back
SplineSet
121.455 430.455 m 1
 121.454 430.455 l 1
 528.727 430.455 l 1
 528.727 408.182 l 1
 513.273 408.17 497.595 408.423 482.364 405.826 c 0
 472.666 404.172 463.248 400.81 457.364 392.381 c 0
 451.351 383.566 451.171 372.125 451 361.818 c 0
 450.828 345.909 451 329.997 451 314.091 c 2
 451 119.545 l 2
 451 102.727 450.765 85.9009 451 69.0909 c 0
 451.23 58.3727 451.738 46.5527 458.657 37.7273 c 0
 465.091 29.5141 475.091 26.6132 485.091 25.0827 c 0
 502.011 22.4777 519.383 22.7273 536.455 22.7273 c 1
 553.273 -161.818 l 1
 527.818 -161.818 l 1
 525.07 -133.079 522.74 -103.988 515.676 -75.9091 c 0
 512.596 -63.6687 508.687 -51.1273 501.755 -40.4659 c 0
 498.212 -35.0168 493.904 -30.1318 489.044 -25.8214 c 0
 463.547 -3.20684 427.185 -0.159567 394.636 -0.0109304 c 2
 377.818 -2.12677e-05 l 1
 162.364 -0.00411218 l 2
 128.438 -0.0777485 90.3318 -2.62184 63.99 -26.8182 c 0
 50.1859 -39.4091 43.5109 -56.8182 38.9313 -74.5455 c 0
 31.5786 -103.031 29.1818 -132.623 26.4545 -161.818 c 1
 0.999973 -161.818 l 1
 17.8182 22.7273 l 1
 35.0295 22.7273 52.76 23.0268 69.1818 28.8132 c 0
 83.9022 34.0004 95.7741 43.9032 107.817 53.4945 c 0
 115.644 59.7282 123.931 65.4545 130.545 73.0368 c 0
 135.635 78.6364 139.911 85 143.97 91.3636 c 0
 151.09 102.508 157.243 114.252 162.543 126.364 c 0
 181.425 169.51 189.896 216.543 194.386 263.182 c 0
 197.364 294.309 198.425 325.566 199.034 356.818 c 0
 199.31 370.909 199.825 387.564 188.093 397.657 c 0
 181.573 403.265 172.935 405.171 164.636 406.323 c 0
 150.369 408.303 135.827 408.171 121.455 408.182 c 1
 121.455 430.455 l 1
252.818 407.727 m 1
 252.818 407.727 l 1
 247.803 407.273 242.62 406.485 238.139 404.044 c 0
 223.97 396.329 225.052 377.536 224.406 363.636 c 2
 223.864 350 l 2
 221.909 285.416 218.273 220 199.947 157.727 c 0
 190.66 126.259 177.569 95.6877 158.833 68.6364 c 0
 153.188 60.4545 146.555 53.0936 140.86 45 c 0
 138.124 41.1155 134.997 36.3636 135.992 31.3636 c 0
 137.189 25.3864 143.488 23.6205 148.727 23.0409 c 0
 153.716 22.5018 158.727 22.7273 163.727 22.7273 c 2
 187.818 22.7273 l 1
 296.909 22.7273 l 1
 331.909 22.7273 l 2
 339.899 22.7273 348.058 22.4009 355.996 23.4714 c 0
 359.454 23.9377 363.113 24.5455 366.265 26.1505 c 0
 368.476 27.2546 370.878 28.5105 372.544 30.3964 c 0
 374.009 32.0564 375.545 33.6364 376.454 35.7368 c 0
 380.407 44.2896 380.804 53.4546 380.951 62.7273 c 0
 381.168 76.51 381 90.3068 381 104.091 c 2
 381 180.909 l 1
 381 341.364 l 2
 381 354.464 381.75 367.868 380.285 380.908 c 0
 379.451 388.333 377.618 395.909 371.822 401.134 c 0
 362.592 409.377 347.954 408.151 336.454 408.178 c 2
 284.636 408.182 l 2
 274.077 408.182 263.273 408.636 252.818 407.727 c 1
EndSplineSet
Fore
SplineSet
1 -162 m 1
 18 23 l 1
 61 23 73 26 108 53 c 0
 122 64 139 74 163 126 c 0
 181 169 199 239 199 364 c 0
 199 407 175 408 121 408 c 1
 121 430 l 1
 529 430 l 1
 529 408 l 1
 474 408 451 408 451 362 c 2
 451 69 l 2
 451 23 476 23 536 23 c 1
 553 -162 l 1
 528 -162 l 1
 517 -51 511 -0 395 -0 c 2
 162 -0 l 2
 45 0 37 -46 26 -162 c 1
 1 -162 l 1
136 32 m 0
 136 23 148 23 164 23 c 2
 333 23 l 2
 370 23 381 23 381 69 c 2
 381 348 l 2
 381 402 379 408 336 408 c 2
 285 408 l 2
 252 408 246 408 238 404 c 0
 224 396 225 378 224 364 c 0
 222 297 223 161 159 69 c 0
 151 57 136 42 136 32 c 0
EndSplineSet
EndChar

StartChar: afii10021
Encoding: 1044 1044 14
Width: 778
Flags: HMW
HStem: -0 34<179 562> 652 31<177 745>
VStem: -4 25<-195 -195> 279 26<447.5 629.5> 552 90<76 631.5> 757 25<-195 -195>
LayerCount: 2
Fore
SplineSet
-4 -195 m 1
 24 34 l 1
 74 34 105 29 149 84 c 0
 211 160 279 287 279 608 c 0
 279 651 262 652 177 652 c 1
 177 683 l 1
 745 683 l 1
 745 652 l 1
 662 652 642 651 642 610 c 2
 642 76 l 2
 642 37 658 34 755 34 c 1
 782 -195 l 1
 757 -195 l 1
 740 -60 726 -13 616 -1 c 0
 605 0 580 0 544 -0 c 2
 224 -0 l 2
 131 0 67 -3 40 -91 c 0
 30 -125 26 -160 21 -195 c 1
 -4 -195 l 1
157 45 m 0
 157 34 165 34 179 34 c 2
 485 34 l 2
 548 34 552 35 552 76 c 2
 552 611 l 2
 552 652 542 652 488 652 c 2
 370 652 l 2
 306 652 306 652 305 592 c 0
 296 132 157 84 157 45 c 0
EndSplineSet
EndChar

StartChar: afii10072
Encoding: 1078 1078 15
Width: 833
Flags: W
HStem: 0 23<15 67.2017 181.203 212 305 373.067 459.933 528 621 651.797 765.798 818> 408 22<38 84.4695 305 372.204 460.796 528 748.531 795>
VStem: 383 67<27.6886 195.97 212 403.311>
LayerCount: 2
Back
SplineSet
38.2727 430.455 m 5
 38.2728 430.455 l 5
 81.9092 427.917 l 5
 137.818 428.082 l 5
 205.546 430.455 l 5
 205.546 408.182 l 5
 202.006 406.657 198.273 405.312 195.447 402.579 c 4
 193.897 401.087 192.146 399.396 191.259 397.39 c 4
 190.334 395.298 189.182 393.182 189.092 390.873 c 4
 188.273 378.456 195.517 367.641 202.818 358.182 c 4
 204.528 356.035 206.438 354.025 208.273 351.993 c 4
 210.743 349.328 213.4 346.818 216 344.405 c 4
 224.143 337.042 232.818 330.403 241.455 323.636 c 6
 276 296.51 l 5
 381 214.091 l 5
 381 344.091 l 6
 381 353.901 381.429 363.862 380.449 373.636 c 4
 379.599 382.116 377.299 390.455 370.989 396.62 c 4
 364.624 402.727 355.866 404.931 347.364 406.178 c 4
 332.812 408.311 317.943 408.171 303.273 408.182 c 5
 303.273 430.455 l 5
 331.891 429.091 360.534 428.098 389.182 427.727 c 4
 434.808 427.252 480.425 428.342 526 430.455 c 5
 526 408.182 l 5
 511.33 408.171 496.455 408.311 481.909 406.178 c 4
 473.407 404.931 464.637 402.727 458.273 396.62 c 4
 451.909 390.455 449.637 382.116 448.824 373.636 c 4
 447.818 363.713 448.273 353.596 448.273 343.636 c 6
 448.273 211.818 l 5
 484.491 240.589 520.993 269.005 557.364 297.581 c 6
 591 324.011 l 6
 599.275 330.455 607.677 336.93 615.484 344.001 c 4
 618.162 346.364 620.829 348.904 623.273 351.557 c 4
 625.091 353.585 627.087 355.59 628.727 357.727 c 4
 636.275 367.273 643.675 378.268 642.908 390.873 c 4
 642.766 393.182 641.666 395.298 640.742 397.39 c 4
 639.855 399.396 638.103 401.087 636.553 402.579 c 4
 633.714 405.312 629.994 406.657 626.455 408.182 c 5
 626.455 430.455 l 5
 694.182 428.082 l 5
 750.546 427.93 l 5
 793.728 430.455 l 5
 793.728 408.182 l 5
 785.546 407.671 777.586 406.818 769.637 404.966 c 4
 744.851 399.091 721.551 386.45 700.091 373.065 c 4
 653.21 343.822 612.447 306.008 567.818 273.636 c 5
 584.343 251.745 601.409 230.258 618.273 208.636 c 6
 700.546 103.182 l 6
 712.939 87.2728 725.172 71.1618 738.939 56.3637 c 4
 748.506 46.1759 759.001 36.1546 771.909 30.2855 c 4
 785.737 23.9987 801 23.0741 816 22.7273 c 5
 816 3.83854e-05 l 5
 794.637 1.27549 773.273 2.27277 751.909 2.65277 c 4
 707.659 3.34913 663.384 1.94549 619.182 3.8147e-05 c 5
 619.182 22.7273 l 5
 625.091 23.1496 631.184 23.4882 636.885 25.39 c 4
 639.714 26.3341 642.733 27.5469 645.072 29.4482 c 4
 647.044 31.0509 649.182 32.7273 650.483 35 c 4
 651.455 36.9114 652.744 38.8137 653.108 40.9091 c 4
 655.754 56.7787 645.709 71.3637 636.886 83.6364 c 4
 627.591 96.5041 617.535 108.848 607.775 121.364 c 6
 554.182 190 l 6
 542.599 204.915 530.752 219.689 519.636 235 c 5
 504.052 223.107 488.683 210.909 473.273 198.815 c 4
 468.909 195.383 464.472 192.018 460.24 188.422 c 4
 456.713 185.425 453.112 182.263 450.918 178.11 c 4
 448.49 173.515 448.407 168.182 448.273 163.176 c 6
 448.273 143.636 l 6
 448.273 118.944 448.034 94.2368 448.273 69.5455 c 4
 448.437 56.8182 448.841 42.6805 458.996 33.5868 c 4
 465.54 27.7273 474.358 25.7573 482.818 24.5455 c 4
 497.087 22.62 511.627 22.7273 526 22.7273 c 5
 526 2.07424e-05 l 5
 480.425 2.1132 434.807 3.18184 389.182 2.6832 c 4
 360.534 2.35684 331.89 1.32684 303.273 2.09808e-05 c 5
 303.273 22.7273 l 5
 317.645 22.7273 332.186 22.62 346.455 24.5455 c 4
 354.915 25.7573 363.727 27.7273 370.276 33.5868 c 4
 382.455 44.4927 380.985 62.8705 380.999 77.7273 c 6
 381 181.818 l 5
 312.364 235 l 5
 301.135 219.534 289.165 204.545 277.364 189.545 c 6
 224.182 121.364 l 6
 214.465 108.848 204.41 96.5041 195.091 83.6364 c 4
 186.291 71.3637 176.246 56.7787 178.892 40.9091 c 4
 179.182 38.8137 180.476 36.9114 181.455 35 c 4
 182.774 32.7273 184.956 31.0509 186.909 29.4482 c 4
 189.267 27.5468 192.286 26.3341 195.091 25.39 c 4
 200.816 23.4882 206.872 23.1496 212.818 22.7273 c 5
 212.818 2.65837e-05 l 5
 168.616 1.94548 124.341 3.34912 80.0909 2.65275 c 4
 58.7064 2.27275 37.3464 1.27548 16 2.67029e-05 c 5
 16 22.7273 l 5
 30.9595 23.0741 46.2632 23.9987 60.0909 30.2855 c 4
 72.9991 36.155 83.4941 46.1759 93.0614 56.3637 c 4
 106.828 71.1618 119.06 87.2728 131.451 103.182 c 6
 213.717 208.636 l 6
 230.545 230.258 247.658 251.746 264.182 273.636 c 5
 219.553 306.008 178.727 343.822 131.909 373.065 c 4
 110.449 386.45 87.1495 399.091 62.3636 404.966 c 4
 54.4141 406.818 46.4082 407.671 38.2727 408.182 c 5
 38.2727 430.455 l 5
EndSplineSet
Fore
SplineSet
15 0 m 1
 15 23 l 1
 80 23 72 27 263 274 c 1
 184 331 116 403 38 408 c 1
 38 430 l 1
 44 430 64 428 104 428 c 0
 124 428 154 428 205 430 c 1
 205 408 l 1
 198 405 188 401 188 389 c 0
 188 377 195 367 203 358 c 0
 214 344 215 344 383 212 c 1
 383 362 l 2
 383 404 367 408 305 408 c 1
 305 430 l 1
 338 429 391 428 416 428 c 0
 441 428 495 429 528 430 c 1
 528 408 l 1
 466 408 450 404 450 362 c 2
 450 212 l 1
 618 344 619 344 630 358 c 0
 638 367 645 377 645 389 c 0
 645 401 635 405 628 408 c 1
 628 430 l 1
 679 428 709 428 729 428 c 0
 769 428 789 430 795 430 c 1
 795 408 l 1
 717 403 649 331 570 274 c 1
 761 27 753 23 818 23 c 1
 818 0 l 1
 788 2 758 3 728 3 c 0
 693 3 654 1 621 0 c 1
 621 23 l 1
 636 23 655 27 655 46 c 0
 655 77 602 125 521 235 c 1
 456 184 464 190 450 177 c 1
 450 69 l 2
 450 27 466 23 528 23 c 1
 528 0 l 1
 495 1 442 3 417 3 c 0
 392 3 338 1 305 0 c 1
 305 23 l 1
 367 23 383 27 383 69 c 2
 383 177 l 1
 369 190 377 184 312 235 c 1
 231 125 178 77 178 46 c 0
 178 27 197 23 212 23 c 1
 212 0 l 1
 179 1 140 3 105 3 c 0
 75 3 45 2 15 0 c 1
EndSplineSet
EndChar

StartChar: afii10076
Encoding: 1082 1082 16
Width: 555
Flags: HMW
HStem: -0 23<25 56 217 248 341 348.5 505.5 538> 408 22<25 56 217 248 512 515>
VStem: 103 67<48 383>
DStem2: 170 212 241 235 0.776642 0.629943<0.942158 69.6302 132.253 192.137>
LayerCount: 2
Back
SplineSet
25 -0 m 1
 25 23 l 1
 87 23 103 27 103 69 c 2
 103 362 l 2
 103 404 87 408 25 408 c 1
 25 430 l 1
 58 429 111 428 136 428 c 0
 162 428 215 429 248 430 c 1
 248 408 l 1
 186 408 170 404 170 362 c 2
 170 212 l 1
 338 344 339 344 350 358 c 0
 358 367 365 377 365 389 c 0
 365 401 355 405 348 408 c 1
 348 430 l 1
 399 428 429 428 449 428 c 0
 489 428 509 430 515 430 c 1
 515 408 l 1
 437 403 369 331 290 274 c 1
 481 27 473 23 538 23 c 1
 538 -0 l 1
 508 2 478 3 448 3 c 0
 413 3 374 1 341 -0 c 1
 341 23 l 1
 356 23 375 27 375 46 c 0
 375 77 322 125 241 235 c 1
 176 184 184 190 170 177 c 1
 170 69 l 2
 170 27 186 23 248 23 c 1
 248 -0 l 1
 215 1 163 3 137 3 c 0
 112 3 58 1 25 -0 c 1
EndSplineSet
Fore
SplineSet
25 -0 m 1
 25 23 l 1
 87 23 103 27 103 69 c 2
 103 362 l 2
 103 404 87 408 25 408 c 1
 25 430 l 1
 58 429 111 428 136 428 c 0
 162 428 215 429 248 430 c 1
 248 408 l 1
 186 408 170 404 170 362 c 2
 170 212 l 1
 338 344 339 344 350 358 c 0
 358 367 365 377 365 389 c 0
 365 401 355 405 348 408 c 1
 348 430 l 1
 399 428 429 428 449 428 c 0
 489 428 509 430 515 430 c 1
 515 408 l 1
 437 403 369 331 290 274 c 1
 481 27 473 23 538 23 c 1
 538 -0 l 1
 508 2 478 3 448 3 c 0
 413 3 374 1 341 -0 c 1
 341 23 l 1
 356 23 375 27 375 46 c 0
 375 77 322 125 241 235 c 1
 170 177 l 1
 170 69 l 2
 170 27 186 23 248 23 c 1
 248 -0 l 1
 215 1 163 3 137 3 c 0
 112 3 58 1 25 -0 c 1
EndSplineSet
EndChar

StartChar: afii10073
Encoding: 1079 1079 17
Width: 444
Flags: HMW
HStem: -11 26<146 285> 226 22<161.5 248> 424 23<142.5 280>
VStem: 27 21<348 351> 330 80<93 155>
LayerCount: 2
Back
SplineSet
267.455 238.182 m 1
 267.454 238.182 l 1
 287.909 234.271 308.131 228.593 327.454 220.595 c 0
 348.443 211.907 368.175 200.297 383.751 183.525 c 0
 391.69 174.975 398.448 165.26 403.126 154.546 c 0
 416.545 123.755 410.289 87.4125 391.936 60.0002 c 0
 381.234 44.0175 366.734 31.0756 350.182 21.3638 c 0
 304.641 -5.27209 249.675 -10.7712 197.909 -10.9089 c 0
 160.287 -10.9894 121.732 -6.95209 87.9089 10.7452 c 0
 77.0994 16.3638 66.9458 23.347 58.148 31.8184 c 0
 42.4544 46.8993 31.6303 66.2956 26.2198 87.2729 c 0
 24.4939 93.9647 23.213 100.83 22.6694 107.725 c 0
 22.3603 111.646 22.1285 115.875 23.2676 119.693 c 0
 23.8967 121.803 24.9589 124.369 26.8062 125.726 c 0
 28.0685 126.653 29.4235 127.874 31.043 128.14 c 0
 32.3571 128.356 33.7626 128.93 35.1271 128.637 c 0
 36.1908 128.478 37.3598 128.586 38.3635 128.119 c 0
 41.5453 126.627 43.818 124.972 45.4948 121.675 c 0
 47.2567 118.087 47.4544 113.889 48.0612 109.992 c 0
 48.7494 104.948 49.4917 99.9411 50.7462 95.0002 c 0
 54.9344 78.5047 63.3635 63.3052 75.5244 51.3224 c 0
 89.5603 37.4465 107.753 28.402 126.545 22.8834 c 0
 141.469 18.5006 156.965 16.3638 172.454 15.3297 c 0
 179.263 14.8697 186.085 14.5456 192.909 14.5456 c 0
 233.323 14.4793 277.751 22.3843 305.793 54.1734 c 0
 339.391 92.2602 337.086 155.909 300.859 191.478 c 0
 280.378 211.544 252.194 220.769 224.273 224.091 c 0
 203.281 226.649 182.176 225.609 161.091 225.909 c 0
 153.984 226.046 142.563 225.909 140.619 234.873 c 0
 140.452 235.644 140.182 236.794 140.452 237.57 c 0
 140.809 238.761 140.76 240.225 141.545 241.248 c 0
 142.288 242.047 142.718 243.076 143.612 243.637 c 0
 146.462 245.667 149.091 246.709 152.546 247.233 c 0
 158.461 248.13 164.673 247.724 170.636 247.727 c 2
 200.636 247.727 l 2
 212.111 247.727 223.443 248.284 234.727 250.455 c 0
 270.494 257.631 307.391 280.455 318.09 317.273 c 0
 320.182 324.504 321.062 332.025 320.749 339.546 c 0
 320.414 347.599 318.789 355.612 316.028 363.182 c 0
 313.818 369.091 311.015 374.774 307.454 379.992 c 0
 304.727 383.938 301.763 387.678 298.364 391.07 c 0
 275.355 414.353 241.82 421.818 210.182 423.608 c 0
 204.273 423.937 198.364 424.08 192.455 424.031 c 0
 184.262 423.962 176.063 423.534 167.909 422.727 c 0
 156.405 421.609 144.946 419.681 133.818 416.522 c 0
 118.818 412.271 104.39 405.789 92 396.228 c 0
 79.0118 386.161 68.5545 373.097 61.5454 358.182 c 0
 59.679 354.039 58.079 349.771 56.5454 345.455 c 0
 55.4363 342.202 54.5222 338.814 53.0654 335.679 c 0
 52.119 333.636 51.0136 331.138 49.2381 329.666 c 0
 45.544 326.603 41.3609 324.812 36.5068 326.354 c 0
 26.7159 329.465 27.4545 341.778 27.4545 350 c 0
 27.3227 373.481 27.354 396.974 27.4545 420.454 c 2
 27.4545 424.996 l 2
 27.6381 429.546 27.909 433.636 29.2727 438.101 c 0
 29.684 439.45 30.6363 440.453 31.4422 441.582 c 0
 32.2963 442.853 33.8077 443.3 35.0104 444.077 c 0
 35.729 444.541 36.9395 444.647 37.769 444.723 c 0
 43.3636 445.233 48.5749 441.499 52.909 438.416 c 0
 62.164 431.818 70.8695 424.373 79.7272 417.273 c 1
 87.4463 422.395 95.3095 427.001 103.818 430.705 c 0
 140.344 446.602 180.994 447.806 220.182 446.354 c 0
 262.382 444.79 306.174 438.873 343.818 418.498 c 0
 371.366 403.587 394.273 377.854 398.342 345.909 c 0
 399.273 338.506 399.175 330.909 397.543 323.636 c 0
 396.334 318.182 394.273 313.023 391.645 308.182 c 0
 379.708 286.688 357.17 272.727 335.636 262.377 c 0
 313.759 251.807 290.81 244.636 267.455 238.182 c 1
EndSplineSet
Fore
SplineSet
22 112 m 0
 22 124 28 129 34 129 c 0
 39 129 43 126 45 122 c 0
 48 116 47 99 56 80 c 0
 69 50 101 15 193 15 c 0
 305 15 330 78 330 120 c 0
 330 162 310 226 186 226 c 2
 167 226 l 2
 152 226 140 226 140 237 c 0
 140 246 152 248 171 248 c 2
 201 248 l 2
 288 248 321 301 321 336 c 0
 321 378 290 424 195 424 c 0
 90 424 67 373 57 348 c 0
 53 337 51 326 41 326 c 0
 33 326 27 330 27 351 c 2
 27 423 l 2
 27 438 32 445 38 445 c 0
 47 445 62 431 80 417 c 1
 99 430 127 447 198 447 c 0
 362 447 399 381 399 337 c 0
 399 284 333 256 267 238 c 1
 334 225 410 191 410 119 c 0
 410 67 373 -11 197 -11 c 0
 95 -11 51 29 34 66 c 0
 25 83 22 100 22 112 c 0
EndSplineSet
EndChar

StartChar: afii10099
Encoding: 1106 1106 18
Width: 528
Flags: HMW
HStem: -194 21<192 256.5> -0 23<31 64.5 223.5 257> 418 23<285.5 404> 547 31<24 109 176 477>
VStem: 109 70<46 547 578 597> 407 70<245.5 316.5>
LayerCount: 2
Back
SplineSet
31.2727 683.182 m 1
 31.2726 683.182 l 1
 176.273 694.091 l 1
 176.273 577.727 l 1
 477.182 577.727 l 1
 477.182 546.818 l 1
 176.273 546.818 l 1
 176.273 417.727 l 1
 176.727 343.182 l 1
 181.394 352.889 186.572 362.17 192.899 370.909 c 0
 216.885 404.042 252.151 428.324 292.182 437.273 c 0
 314.909 442.366 338.651 442.214 361.727 439.642 c 0
 389.833 436.509 418.043 427.727 439.358 408.455 c 0
 443.897 404.34 448.08 399.839 451.821 394.987 c 0
 456.727 388.554 460.818 381.487 464.218 374.091 c 0
 475.964 348.097 477.177 319.864 477.182 291.818 c 2
 477.182 250.909 l 2
 477.181 216.981 475.696 183.182 471.081 149.545 c 0
 459.664 66.3181 431.028 -16.386 380.364 -84.091 c 0
 345.227 -131.133 297.426 -171.516 239.909 -187.282 c 0
 226.911 -190.909 213.396 -193.415 199.909 -194.091 c 0
 194.302 -194.303 187.336 -194.546 182.865 -190.562 c 0
 180.608 -188.512 179.909 -186.178 179.706 -183.267 c 0
 179.623 -182.347 180.082 -181.491 180.238 -180.618 c 0
 180.463 -179.356 181.563 -178.271 182.311 -177.31 c 0
 183.991 -175.153 187.13 -174.162 189.648 -173.501 c 0
 195.159 -172.053 201.102 -172.078 206.727 -171.246 c 0
 215.24 -170 223.545 -167.897 231.727 -165.032 c 0
 268.497 -152.052 298.545 -124.433 321.581 -93.6365 c 0
 334 -76.991 344.63 -59.091 353.839 -40.4547 c 0
 386.485 25.4544 400.248 98.8422 405.005 171.818 c 0
 407.492 209.967 407.182 248.157 407.182 286.364 c 2
 407.165 305.454 l 2
 406.963 338.182 404.455 375.77 379.179 399.766 c 0
 376.095 402.689 372.616 405.234 368.99 407.439 c 0
 363.355 410.866 357.169 413.342 350.818 415.084 c 0
 341.528 417.632 331.727 418.588 322.182 418.407 c 0
 309.909 418.176 297.588 416.281 285.818 412.818 c 0
 271.412 408.579 257.636 401.995 245.364 393.426 c 0
 235.493 386.566 226.49 378.478 218.505 369.498 c 0
 198.091 346.564 184.909 317.66 180.724 287.273 c 0
 178.007 267.619 179 247.514 179 227.727 c 2
 179 145.909 l 1
 179 73.6363 l 2
 179 61.3631 178.436 47.0331 186.58 36.9018 c 0
 192.636 29.2886 201.979 26.3636 211.273 24.9208 c 0
 226.233 22.5218 241.622 22.7272 256.727 22.7272 c 1
 256.727 -6.67572e-05 l 1
 227.636 1.32448 198.545 2.37948 169.455 2.68766 c 0
 123.372 3.17584 77.3059 2.09766 31.2727 -6.67572e-05 c 1
 31.2727 22.7272 l 1
 46.9532 22.7272 63.0568 22.4136 78.545 25.224 c 0
 89 27.1236 98.8286 31.3149 104.17 41.0645 c 0
 107.623 47.3677 108.429 54.7595 108.786 61.8181 c 0
 109.23 70.5854 109 79.4058 109 88.1818 c 2
 109 185.909 l 1
 109 546.818 l 1
 24 546.818 l 1
 24 577.727 l 1
 109 577.727 l 1
 109 588.911 109.408 600.206 108.512 611.364 c 0
 107.876 619.289 106.522 627.494 102.132 634.294 c 0
 96.1527 643.557 86.2727 647.708 75.8177 649.695 c 0
 61.2214 652.47 46.0695 652.254 31.2727 652.273 c 1
 31.2727 683.182 l 1
EndSplineSet
Fore
SplineSet
24 547 m 1
 24 578 l 1
 109 578 l 1
 109 616 112 643 76 650 c 0
 61 652 46 652 31 652 c 1
 31 683 l 1
 176 694 l 1
 176 578 l 1
 477 578 l 1
 477 547 l 1
 176 547 l 1
 176 418 l 2
 176 378 177 343 177 343 c 1
 193 378 239 441 332 441 c 0
 476 441 477 341 477 292 c 2
 477 251 l 2
 477 -45 317 -194 196 -194 c 0
 188 -194 180 -193 180 -183 c 0
 180 -169 201 -176 232 -165 c 0
 289 -145 329 -90 354 -40 c 0
 410 73 407 205 407 286 c 2
 407 305 l 2
 407 354 400 418 324 418 c 0
 288 418 239 402 208 356 c 0
 190 331 179 306 179 251 c 2
 179 69 l 2
 179 23 201 23 257 23 c 1
 257 -0 l 1
 222 1 171 3 144 3 c 0
 117 3 66 1 31 -0 c 1
 31 23 l 1
 87 23 109 23 109 69 c 2
 109 547 l 1
 24 547 l 1
EndSplineSet
EndChar

StartChar: uni0258
Encoding: 600 600 19
Width: 444
Flags: HW
HStem: -11 26<100.6 260.5> 230 22<94 331> 424 23<149.2 271.4>
VStem: 27 67<252 373.9> 332 84<148.399 230 252 336.5>
LayerCount: 2
Fore
SplineSet
27 253 m 0
 27 346 79 447 206 447 c 0
 331 447 416 336 416 219 c 0
 416 86 309 -11 195 -11 c 0
 81 -11 29 88 29 118 c 0
 29 126 34 129 38 129 c 0
 53 129 53 118 58 106 c 0
 74 63 121 15 189 15 c 0
 244 15 282 50 302 81 c 0
 329 125 332 179 332 230 c 1
 51 230 l 1
 37 230 27 231 27 253 c 0
94 252 m 1
 331 252 l 1
 325 382 257 424 209 424 c 0
 163 424 96 394 94 252 c 1
EndSplineSet
EndChar

StartChar: uni0259
Encoding: 601 601 20
Width: 444
Flags: HW
HStem: -16 23<145.9 270.7> 178 22<88 331> 416 25<135.5 259.5>
VStem: 21 67<84.4 178> 332 83<92.85 211>
LayerCount: 2
Fore
SplineSet
21 178 m 0
 21 199 31 200 44 200 c 0
 332 200 l 1
 332 252 329 306 301 351 c 0
 281 381 243 416 188 416 c 0
 147 416 81 394 52 325 c 0
 46 310 45 301 33 301 c 0
 28 301 23 306 23 312 c 0
 23 329 43 374 86 406 c 0
 113 426 149 441 194 441 c 0
 309 441 415 346 415 211 c 0
 415 92 328 -16 206 -16 c 0
 58 -16 21 106 21 178 c 0
88 178 m 1
 90 38 160 7 207 7 c 0
 256 7 325 47 331 178 c 1
 88 178 l 1
EndSplineSet
EndChar

StartChar: uni025A
Encoding: 602 602 21
Width: 639
Flags: HW
HStem: -16 23<130.6 224.684> 226 23<539.206 620.8> 416 25<116.3 227.881>
VStem: 312 83<133.789 272.1> 476 38<276.614 400>
LayerCount: 2
Fore
SplineSet
27 134 m 0
 27 147 33 153 43 159 c 2
 297 321 l 1
 271 385 227 416 180 416 c 0
 131 416 78 383 57 322 c 0
 54 314 52 305 45 302 c 0
 32 298 27 308 29 320 c 0
 38 357 86 441 185 441 c 0
 212 441 288 435 349 355 c 1
 457 424 l 2
 482 440 485 441 494 441 c 0
 512 441 514 431 514 415 c 2
 514 319 l 2
 514 301 513 266 544 252 c 0
 549 250 555 249 561 249 c 0
 607 249 612 301 617 307 c 0
 625 315 637 307 637 295 c 0
 637 267 609 226 559 226 c 0
 531 226 476 241 476 310 c 2
 476 400 l 1
 366 329 l 1
 385 292 395 258 395 211 c 0
 395 95 316 -16 194 -16 c 0
 61 -16 27 80 27 134 c 0
58 132 m 1
 65 25 145 7 193 7 c 0
 212 7 247 11 276 53 c 0
 311 102 312 172 312 211 c 0
 312 247 309 266 306 290 c 1
 58 132 l 1
EndSplineSet
EndChar

StartChar: uni025D
Encoding: 605 605 22
Width: 639
Flags: HW
HStem: -22 28<99.7 315.5> 215 24<554.9 632.9> 427 26<99 326.5>
VStem: 55 77<319.4 366.72> 342 87<24.6 174.1> 497 38<234 401>
LayerCount: 2
Fore
SplineSet
43 73 m 0
 43 81 47 87 53 87 c 0
 56 87 59 86 63 83 c 0
 73 74 130 6 231 6 c 0
 296 6 342 45 342 113 c 0
 342 199 273 221 234 221 c 2
 219 221 l 2
 205 221 196 222 196 232 c 0
 196 251 242 242 268 250 c 0
 290 257 328 285 328 338 c 0
 328 379 304 427 229 427 c 0
 129 427 97 390 94 387 c 1
 127 384 132 358 132 348 c 0
 132 326 114 310 94 310 c 0
 80 310 55 319 55 351 c 0
 55 400 102 453 232 453 c 0
 305 453 371 429 405 376 c 1
 478 424 l 2
 500 439 506 441 515 441 c 0
 535 441 535 431 535 419 c 2
 535 299 l 2
 535 249 560 239 577 239 c 0
 620 239 624 287 628 291 c 0
 631 295 635 296 638 296 c 0
 644 296 650 291 650 282 c 0
 650 255 624 215 576 215 c 0
 548 215 497 232 497 297 c 2
 497 401 l 1
 436 361 l 2
 412 345 417 345 415 326 c 0
 408 263 340 240 308 231 c 1
 388 210 429 160 429 113 c 0
 429 45 352 -22 235 -22 c 0
 120 -22 43 56 43 73 c 0
EndSplineSet
EndChar

StartChar: uni025E
Encoding: 606 606 23
Width: 500
Flags: HW
HStem: -22 28<123.8 342.2> 427 26<98.5 331.2>
VStem: 27 26<43.6 351.4> 355 88<281.1 407.2> 369 88<29.8 174.1>
LayerCount: 2
Fore
SplineSet
27 198 m 0xe8
 27 316 106 453 251 453 c 0
 350 453 443 405 443 336 c 0xf0
 443 265 370 241 332 230 c 1
 417 206 457 160 457 113 c 0
 457 35 357 -22 251 -22 c 0
 133 -22 27 66 27 198 c 0xe8
53 197 m 0
 53 79 152 6 246 6 c 0
 320 6 369 49 369 113 c 0xe8
 369 178 320 221 245 221 c 0
 228 221 223 227 223 232 c 0
 223 250 265 243 288 248 c 0
 328 257 355 294 355 337 c 0
 355 391 312 427 248 427 c 0
 133 427 53 316 53 197 c 0
EndSplineSet
EndChar

StartChar: uni0260
Encoding: 608 608 24
Width: 556
Flags: HMW
HStem: -217 23<127.5 290.7> 8 23<151.2 305.9> 418 23<167.4 337.9> 613 23<488.8 568.1>
VStem: 33 84<84.7 374.6> 381 67<-61.5723 100.625 187.707 336.8 366 585> 546 92<504.9 575.1>
LayerCount: 2
Fore
SplineSet
33 216 m 0
 33 343 138 441 256 441 c 0
 319 441 355 406 381 366 c 1
 381 461 l 2
 381 585 466 636 531 636 c 0
 591 636 638 592 638 542 c 0
 638 504 606 495 592 495 c 0
 568 495 546 513 546 540 c 0
 546 567 566 586 594 586 c 1
 579 600 560 613 533 613 c 0
 499 613 448 588 448 456 c 2
 448 376 l 2
 448 335 450 340 450 325 c 2
 450 -21 l 2
 450 -59 447 -127 370 -179 c 0
 327 -208 279 -217 240 -217 c 0
 133 -217 56 -172 56 -102 c 0
 56 -69 78 -54 100 -54 c 0
 124 -54 147 -70 147 -100 c 0
 147 -115 140 -144 98 -146 c 1
 116 -164 153 -194 238 -194 c 0
 307 -194 380 -139 380 -30 c 2
 380 76 l 2
 380 85 380 93 379 101 c 1
 364 70 326 8 245 8 c 0
 141 8 33 91 33 216 c 0
117 216 m 0
 117 115 174 31 250 31 c 0
 293 31 345 60 368 138 c 0
 380 178 381 216 381 254 c 2
 381 290 l 2
 381 326 343 418 261 418 c 0
 189 418 117 338 117 216 c 0
EndSplineSet
EndChar

StartChar: theta
Encoding: 952 952 25
Width: 569
Flags: HW
HStem: -11 23<185 334.87> 418 23<60.9 123.7> 682 23<239 396.3>
VStem: 15 26<277.661 392.8> 129 75<112 371.456> 195 26<428.1 643.6> 404 79<215.655 326 372 576.1>
LayerCount: 2
Fore
SplineSet
15 307 m 0
 15 373 22 441 86 441 c 0
 115 441 204 422 204 312 c 2
 204 171 l 2xfa
 204 112 212 12 302 12 c 0
 334 12 358 33 382 113 c 0
 403 187 404 266 404 342 c 2
 404 348 l 1
 317 377 195 434 195 563 c 0xf6
 195 625 230 705 306 705 c 0
 412 705 483 530 483 350 c 1
 515 343 535 341 535 329 c 0
 535 322 530 319 523 319 c 0
 513 319 499 323 483 326 c 1
 483 184 432 82 397 39 c 0
 359 -8 324 -11 299 -11 c 0
 141 -11 129 104 129 183 c 2
 129 309 l 2
 129 345 126 418 83 418 c 0
 66 418 41 405 41 321 c 0
 41 287 40 279 27 279 c 0xfa
 15 279 15 294 15 307 c 0
221 562 m 0xf6
 221 459 314 401 404 372 c 1
 404 529 375 682 304 682 c 0
 254 682 221 626 221 562 c 0xf6
EndSplineSet
EndChar

StartChar: Pi
Encoding: 928 928 26
Width: 750
Flags: HW
HStem: -0 31<33 116 224.762 328 421 511 612.762 716> 650 30<33 141.6 225 524 627 716>
VStem: 136 89<38 650> 524 89<38 650>
LayerCount: 2
Fore
SplineSet
33 -0 m 1
 33 31 l 1
 48 31 l 2
 120 31 136 38 136 73 c 2
 136 608 l 2
 136 643 120 650 48 650 c 2
 33 650 l 1
 33 680 l 1
 33 680 126 678 186 678 c 24
 205 678 214 680 234 680 c 10
 515 680 l 2
 535 680 544 678 563 678 c 24
 623 678 716 680 716 680 c 1
 716 650 l 1
 701 650 l 2
 629 650 613 643 613 608 c 2
 613 73 l 2
 613 38 629 31 701 31 c 2
 716 31 l 1
 716 -0 l 1
 665 2 613 3 569 3 c 0
 524 3 472 2 421 -0 c 1
 421 31 l 1
 436 31 l 2
 508 31 524 38 524 73 c 2
 524 650 l 1
 225 650 l 1
 225 73 l 2
 225 38 241 31 313 31 c 2
 328 31 l 1
 328 -0 l 1
 277 2 225 3 180 3 c 0
 136 3 84 2 33 -0 c 1
EndSplineSet
EndChar

StartChar: tau
Encoding: 964 964 27
Width: 458
Flags: HW
HStem: -11 76<215.6 340.4> 365 65<53.6 209 234 413.773>
VStem: 209 25<166.145 365>
LayerCount: 2
Fore
SplineSet
30 358 m 0
 30 363 51 430 112 430 c 2
 393 430 l 2
 409 430 416 428 416 407 c 2
 416 387 l 2
 416 367 407 365 393 365 c 2
 234 365 l 1
 234 230 l 2
 234 180 236 65 304 65 c 0
 332 65 346 88 358 88 c 0
 364 88 374 82 374 59 c 0
 374 23 346 -11 304 -11 c 0
 212 -11 209 114 209 195 c 2
 209 365 l 1
 116 365 l 2
 63 365 57 346 41 346 c 0
 36 346 30 351 30 358 c 0
EndSplineSet
EndChar

StartChar: afii10086
Encoding: 1092 1092 28
Width: 778
Flags: HMW
HStem: -195 31<277 341 438 500> -11 23<160.3 315.2 460.5 606.3> 416 25<173.3 317.1 454.2 619.3> 652 31<277 316.545>
VStem: 33 84<66.8 377.5> 355 67<-159 38 55.5 370 394 664.8> 660 84<53.5 359>
LayerCount: 2
Fore
SplineSet
33 215 m 0
 33 348 144 441 256 441 c 0
 303 441 329 423 355 394 c 1
 355 592 l 2
 355 648 342 652 277 652 c 1
 277 683 l 1
 422 694 l 1
 422 394 l 1
 448 423 474 441 521 441 c 0
 633 441 744 348 744 215 c 0
 744 83 631 -11 519 -11 c 0
 474 -11 446 8 422 38 c 1
 422 -119 l 2
 422 -159 436 -164 494 -164 c 2
 500 -164 l 1
 500 -195 l 1
 464 -193 414 -192 388 -192 c 0
 362 -192 313 -193 277 -195 c 1
 277 -164 l 1
 283 -164 l 2
 341 -164 355 -159 355 -119 c 2
 355 38 l 1
 331 8 303 -11 258 -11 c 0
 146 -11 33 83 33 215 c 0
117 215 m 0
 117 90 194 12 263 12 c 0
 313 12 355 61 355 102 c 2
 355 331 l 2
 355 370 313 416 263 416 c 0
 194 416 117 340 117 215 c 0
422 102 m 2
 422 61 464 12 514 12 c 0
 583 12 660 90 660 215 c 0
 660 340 583 416 514 416 c 0
 464 416 422 370 422 331 c 2
 422 102 l 2
EndSplineSet
EndChar

StartChar: afii10038
Encoding: 1060 1060 29
Width: 833
Flags: HMW
HStem: -0 31<245 367 452.9 586> 118 23<273.9 374 458 556.8> 569 23<272.043 374 458 563.3> 652 31<245 376.991 477 586>
VStem: 55 101<282.2 505.5> 374 84<41 118 141 569 592 648> 676 101<282.2 496.7>
LayerCount: 2
Fore
SplineSet
55 355 m 0
 55 569 264 589 374 592 c 1
 374 606 l 2
 374 648 354 652 263 652 c 2
 245 652 l 1
 245 683 l 1
 302 681 359 680 416 680 c 0
 472 680 529 681 586 683 c 1
 586 652 l 1
 568 652 l 2
 477 652 458 648 458 606 c 2
 458 592 l 1
 568 589 777 569 777 355 c 0
 777 141 568 121 458 118 c 1
 458 77 l 2
 458 35 477 31 568 31 c 2
 586 31 l 1
 586 -0 l 1
 529 2 472 3 416 3 c 0
 359 3 302 2 245 -0 c 1
 245 31 l 1
 263 31 l 2
 354 31 374 35 374 77 c 2
 374 118 l 1
 264 121 55 141 55 355 c 0
156 355 m 0
 156 246 185 148 374 141 c 1
 374 569 l 1
 185 562 156 464 156 355 c 0
458 141 m 1
 647 148 676 246 676 355 c 0
 676 464 647 562 458 569 c 1
 458 141 l 1
EndSplineSet
EndChar

StartChar: uni046B
Encoding: 1131 1131 30
Width: 833
Flags: HW
HStem: -0 23<16 65.9068 180.523 212 327 377.584 455.199 505 620 651.477 766.093 816> 408 22<244 624>
VStem: 385 62<25.584 226>
DStem2: 244 407 189 401 0.770875 -0.636986<0 202.902> 434 250 457 247 0.770875 0.636986<15.8192 246.473>
LayerCount: 2
Fore
SplineSet
16 -0 m 1
 16 23 l 1
 60 23 71 27 144 118 c 2
 190 175 l 2
 223 216 250 247 375 247 c 1
 189 401 l 2
 173 415 169 420 169 423 c 0
 169 430 180 430 186 430 c 2
 646 430 l 2
 652 430 663 430 663 423 c 0
 663 420 659 415 643 401 c 2
 457 247 l 1
 582 247 609 216 642 175 c 2
 688 118 l 2
 761 27 772 23 816 23 c 1
 816 0 l 1
 764 3 737 3 729 3 c 0
 692 3 656 2 620 0 c 1
 620 23 l 1
 651 24 655 37 655 47 c 0
 655 58 644 79 630 100 c 2
 580 172 l 2
 547 220 520 222 447 226 c 1
 447 72 l 2
 447 23 464 23 505 23 c 1
 505 -0 l 1
 475 2 445 3 415 3 c 0
 385 3 356 2 327 -0 c 1
 327 23 l 1
 373 23 385 24 385 73 c 2
 385 226 l 1
 312 222 285 220 252 172 c 2
 202 100 l 2
 188 79 177 58 177 47 c 0
 177 37 181 24 212 23 c 1
 212 -0 l 1
 176 2 140 3 103 3 c 0
 95 3 68 3 16 -0 c 1
244 407 m 1
 434 250 l 1
 624 407 l 1
 624 408 l 1
 244 408 l 1
 244 407 l 1
EndSplineSet
EndChar

StartChar: uni046C
Encoding: 1132 1132 31
Width: 1361
Flags: HW
HStem: 0 31<33 130.733 230.267 328 349 420.748 548.121 604 743 797.248 894.752 949 1088 1143.88 1271.25 1343> 340 31<225 634> 652 31<33 130.733 230.267 328 660 1090>
VStem: 136 89<35.9118 340 371 647.088> 801 90<33.4109 340>
DStem2: 443 72 554 101 0.520463 0.853884<46.0499 324.768> 660 652 568 655 0.612398 -0.79055<0 300.531> 876 375 903 370 0.612788 0.790247<12.594 350.035> 1121 282 1045 268 0.520463 -0.853884<-79.3714 199.885>
LayerCount: 2
Fore
SplineSet
33 0 m 1
 33 31 l 1
 57 31 l 2
 134 31 136 42 136 78 c 2
 136 605 l 2
 136 641 134 652 57 652 c 2
 33 652 l 1
 33 683 l 1
 68 680 143 680 181 680 c 0
 219 680 293 680 328 683 c 1
 328 652 l 1
 304 652 l 2
 227 652 225 641 225 605 c 2
 225 371 l 1
 788 371 l 1
 568 655 l 2
 563 661 557 669 557 675 c 0
 557 680 561 683 576 683 c 2
 1116 683 l 2
 1131 683 1135 680 1135 675 c 0
 1135 669 1129 661 1124 655 c 2
 903 370 l 1
 1066 370 1106 306 1121 282 c 2
 1249 72 l 2
 1271 36 1292 31 1338 31 c 2
 1343 31 l 1
 1343 0 l 1
 1305 2 1266 3 1228 3 c 0
 1181 3 1135 2 1088 0 c 1
 1088 31 l 1
 1092 31 l 2
 1121 31 1151 38 1151 66 c 0
 1151 70 1147 84 1138 101 c 2
 1045 268 l 2
 1017 318 995 333 891 340 c 1
 891 77 l 2
 891 36 897 31 949 31 c 1
 949 0 l 1
 914 2 879 3 846 3 c 0
 813 3 778 2 743 0 c 1
 743 31 l 1
 795 31 801 36 801 77 c 2
 801 340 l 1
 697 333 675 318 647 268 c 2
 554 101 l 2
 545 84 541 70 541 66 c 0
 541 38 571 31 600 31 c 2
 604 31 l 1
 604 0 l 1
 557 2 511 3 464 3 c 0
 426 3 387 2 349 0 c 1
 349 31 l 1
 354 31 l 2
 400 31 421 36 443 72 c 2
 571 282 l 2
 579 295 595 320 634 340 c 1
 225 340 l 1
 225 78 l 2
 225 42 227 31 304 31 c 2
 328 31 l 1
 328 0 l 1
 293 3 218 3 180 3 c 0
 142 3 68 3 33 0 c 1
660 652 m 1
 875 375 l 1
 876 375 l 1
 1090 652 l 1
 660 652 l 1
EndSplineSet
EndChar

StartChar: uni046D
Encoding: 1133 1133 32
Width: 1125
Flags: HW
HStem: -0 23<25 93.0667 182.572 250 307 356.907 471.523 503 618 668.584 746.199 796 911 942.477 1057.09 1107> 226 22<173 538> 408 22<25 92.2045 183.412 250 535 915>
VStem: 103 70<27.6886 226 248 403.311> 676 62<25.584 226>
DStem2: 535 407 480 401 0.770875 -0.636986<0 201.495> 725 250 748 247 0.770875 0.636986<15.8192 246.473>
LayerCount: 2
Fore
SplineSet
25 -0 m 1
 25 23 l 1
 87 23 103 27 103 69 c 2
 103 362 l 2
 103 404 87 408 25 408 c 1
 25 430 l 1
 58 429 112 428 137 428 c 0
 163 428 217 429 250 430 c 1
 250 408 l 1
 188 408 173 404 173 362 c 2
 173 248 l 1
 665 248 l 1
 480 401 l 2
 464 415 460 420 460 423 c 0
 460 430 471 430 477 430 c 2
 937 430 l 2
 943 430 954 430 954 423 c 0
 954 420 950 415 934 401 c 2
 748 247 l 1
 873 247 900 216 933 175 c 2
 979 118 l 2
 1052 27 1063 23 1107 23 c 1
 1107 0 l 1
 1055 3 1028 3 1020 3 c 0
 983 3 947 2 911 0 c 1
 911 23 l 1
 942 24 946 37 946 47 c 0
 946 58 935 79 921 100 c 2
 871 172 l 2
 838 220 811 222 738 226 c 1
 738 72 l 2
 738 23 755 23 796 23 c 1
 796 0 l 1
 766 2 736 3 706 3 c 0
 676 3 647 2 618 0 c 1
 618 23 l 1
 664 23 676 24 676 73 c 2
 676 226 l 1
 603 222 576 220 543 172 c 2
 493 100 l 2
 479 79 468 58 468 47 c 0
 468 37 472 24 503 23 c 1
 503 0 l 1
 467 2 431 3 394 3 c 0
 386 3 359 3 307 0 c 1
 307 23 l 1
 351 23 362 27 435 118 c 2
 481 175 l 2
 497 195 512 213 538 226 c 1
 173 226 l 1
 173 69 l 2
 173 27 188 23 250 23 c 1
 250 0 l 1
 217 1 164 3 138 3 c 0
 113 3 58 1 25 -0 c 1
535 407 m 1
 725 250 l 1
 915 407 l 1
 915 408 l 1
 535 408 l 1
 535 407 l 1
EndSplineSet
EndChar

StartChar: afii10079
Encoding: 1085 1085 33
Width: 555
Flags: WO
HStem: -0 23<25 93.0667 182.572 250 303 370.428 459.933 528> 408 22<25 92.2045 183.412 250 303 369.588 460.796 528>
VStem: 103 70<27.6886 69 362 403.311> 380 70<27.6886 69 362 403.311>
LayerCount: 2
Back
SplineSet
25 0 m 5
 25 23 l 5
 33 23 l 6
 91 23 102 30 103 69 c 5
 103 362 l 5
 102 401 91 408 32 408 c 6
 25 408 l 5
 25 430 l 5
 62 429 99 428 136 428 c 4
 174 428 212 429 250 430 c 5
 250 408 l 5
 247 408 l 6
 189 408 173 404 173 362 c 6
 173 248 l 5
 380 248 l 5
 380 362 l 6
 380 404 364 408 307 408 c 6
 303 408 l 5
 303 430 l 5
 339 429 376 428 413 428 c 4
 452 428 490 429 528 430 c 5
 528 408 l 5
 521 408 l 6
 460 408 451 400 450 362 c 5
 450 69 l 5
 451 30 462 23 520 23 c 6
 528 23 l 5
 528 -0 l 5
 490 2 451 3 412 3 c 6
 408 3 l 6
 394 3 361 3 303 0 c 5
 303 23 l 5
 308 23 l 6
 367 23 381 29 381 71 c 4
 381 77 380 83 380 89 c 6
 380 226 l 5
 173 226 l 5
 173 71 l 6
 173 28 186 23 245 23 c 6
 250 23 l 5
 250 -0 l 5
 212 2 173 3 134 3 c 6
 130 3 l 6
 116 3 83 3 25 0 c 5
EndSplineSet
Fore
SplineSet
25 -0 m 1
 58 1 113 3 138 3 c 0
 164 3 217 1 250 0 c 1
 250 23 l 1
 188 23 173 27 173 69 c 2
 173 226 l 1
 380 226 l 1
 380 69 l 2
 380 27 365 23 303 23 c 1
 303 0 l 1
 336 1 389 3 415 3 c 0
 440 3 495 1 528 0 c 1
 528 23 l 1
 466 23 450 27 450 69 c 2
 450 362 l 2
 450 404 466 408 528 408 c 1
 528 430 l 1
 495 429 441 428 416 428 c 0
 390 428 336 429 303 430 c 1
 303 408 l 1
 365 408 380 404 380 362 c 2
 380 248 l 1
 173 248 l 1
 173 362 l 2
 173 404 188 408 250 408 c 1
 250 430 l 1
 217 429 163 428 137 428 c 0
 112 428 58 429 25 430 c 1
 25 408 l 1
 87 408 103 404 103 362 c 2
 103 69 l 2
 103 27 87 23 25 23 c 1
 25 -0 l 1
EndSplineSet
EndChar

StartChar: uni046A
Encoding: 1130 1130 34
Width: 1028
Flags: HW
HStem: 0 31<16 87.7482 215.121 271 410 464.248 561.752 616 755 810.879 938.252 1010> 652 31<327 757>
VStem: 468 90<33.4109 340>
DStem2: 110 72 221 101 0.520463 0.853884<46.0499 325.306> 327 652 235 655 0.612788 -0.790247<0 301.899> 543 375 570 370 0.612788 0.790247<12.594 350.035> 788 282 712 268 0.520463 -0.853884<-79.3714 199.885>
LayerCount: 2
Fore
SplineSet
16 0 m 1
 16 31 l 1
 21 31 l 2
 67 31 88 36 110 72 c 2
 238 282 l 2
 253 306 293 370 456 370 c 1
 235 655 l 2
 230 661 224 669 224 675 c 0
 224 680 228 683 243 683 c 2
 783 683 l 2
 798 683 802 680 802 675 c 0
 802 669 796 661 791 655 c 2
 570 370 l 1
 733 370 773 306 788 282 c 2
 916 72 l 2
 938 36 959 31 1005 31 c 2
 1010 31 l 1
 1010 -0 l 1
 972 2 933 3 895 3 c 0
 848 3 802 2 755 -0 c 1
 755 31 l 1
 759 31 l 2
 788 31 818 38 818 66 c 0
 818 70 814 84 805 101 c 2
 712 268 l 2
 684 318 662 333 558 340 c 1
 558 77 l 2
 558 36 564 31 616 31 c 1
 616 -0 l 1
 581 2 546 3 513 3 c 0
 480 3 445 2 410 0 c 1
 410 31 l 1
 462 31 468 36 468 77 c 2
 468 340 l 1
 364 333 342 318 314 268 c 2
 221 101 l 2
 212 84 208 70 208 66 c 0
 208 38 238 31 267 31 c 2
 271 31 l 1
 271 0 l 1
 224 2 178 3 131 3 c 0
 93 3 54 2 16 0 c 1
327 652 m 1
 542 375 l 1
 543 375 l 1
 757 652 l 1
 327 652 l 1
EndSplineSet
EndChar
